<?xml version="1.0" encoding="UTF-8" standalone="no"?>
<svg
   xmlns:dc="http://purl.org/dc/elements/1.1/"
   xmlns:cc="http://creativecommons.org/ns#"
   xmlns:rdf="http://www.w3.org/1999/02/22-rdf-syntax-ns#"
   xmlns:svg="http://www.w3.org/2000/svg"
   xmlns="http://www.w3.org/2000/svg"
   xmlns:sodipodi="http://sodipodi.sourceforge.net/DTD/sodipodi-0.dtd"
   xmlns:inkscape="http://www.inkscape.org/namespaces/inkscape"
   inkscape:export-ydpi="96"
   inkscape:export-xdpi="96"
   inkscape:export-filename="D:\c-s\SVN-WEBREFCSSI\trunk\webref\1-src\images\domain-image-icon.png"
   inkscape:version="1.0 (4035a4fb49, 2020-05-01)"
   sodipodi:docname="domain-eo-icon.svg"
   id="svg4"
   viewBox="0 0 512.00002 512"
   height="512"
   width="512"
   version="1.1">
  <metadata
     id="metadata10">
    <rdf:RDF>
      <cc:Work
         rdf:about="">
        <dc:format>image/svg+xml</dc:format>
        <dc:type
           rdf:resource="http://purl.org/dc/dcmitype/StillImage" />
        <dc:title />
      </cc:Work>
    </rdf:RDF>
  </metadata>
  <defs
     id="defs8">
    <pattern
       id="EMFhbasepattern"
       patternUnits="userSpaceOnUse"
       width="6"
       height="6"
       x="0"
       y="0" />
    <pattern
       id="EMFhbasepattern-1"
       patternUnits="userSpaceOnUse"
       width="6"
       height="6"
       x="0"
       y="0" />
  </defs>
  <sodipodi:namedview
     inkscape:current-layer="svg4"
     inkscape:window-maximized="1"
     inkscape:window-y="-8"
     inkscape:window-x="1912"
     inkscape:cy="274.85039"
     inkscape:cx="-5.6348848"
     inkscape:zoom="0.84765627"
     fit-margin-bottom="0"
     fit-margin-right="0"
     fit-margin-left="0"
     fit-margin-top="0"
     showgrid="false"
     id="namedview6"
     inkscape:window-height="1017"
     inkscape:window-width="1920"
     inkscape:pageshadow="2"
     inkscape:pageopacity="0"
     guidetolerance="10"
     gridtolerance="10"
     objecttolerance="10"
     borderopacity="1"
     bordercolor="#666666"
     pagecolor="#ffffff"
     inkscape:document-rotation="0"
     showguides="false" />
  <g
     transform="translate(3.0708468,11.695852)"
     id="g40">
    <rect
       style="fill:#ffffff;fill-opacity:1;stroke-width:0.8358"
       id="rect164-5"
       width="254.02312"
       height="45.710026"
       x="129.66367"
       y="412.90164" />
    <path
       sodipodi:nodetypes="ccccccccc"
       id="path38-6-1-3"
       d="m 135.18236,397.02047 c -32.89058,10.66945 -31.45353,65.72791 0.17346,74.15964 56.80977,-0.44484 198.1656,-0.19457 242.99112,-0.19322 31.29468,-6.33656 32.26023,-68.97349 0.45718,-73.52905 m -0.55512,19.44379 v 35.32203 H 135.15228 V 416.90163 H 378.249"
       style="fill:#117b99;fill-opacity:1;stroke:none;stroke-width:5.8373" />
    <path
       style="fill:#117b99;fill-opacity:1;stroke-width:0.82796"
       d="m 247.88653,434.10028 v -5.85049 h 59.61174 59.61175 v 5.85049 5.85049 h -59.61175 -59.61174 z"
       id="path44-19-1-8-9" />
    <path
       id="path44-2-51-8"
       d="m 150.8367,434.10028 v -5.85048 h 8.69666 8.69669 v 5.85048 5.8505 h -8.69669 -8.69666 z"
       style="fill:#117b99;fill-opacity:1;stroke-width:0.316243" />
    <path
       style="fill:#117b99;fill-opacity:1;stroke-width:0.316243"
       d="m 178.8645,434.10028 v -5.85048 h 8.69667 8.69667 v 5.85048 5.8505 h -8.69667 -8.69667 z"
       id="path44-3-9-3-6" />
    <path
       style="fill:#117b99;fill-opacity:1;stroke-width:0.316243"
       d="m 206.89231,434.10028 v -5.85048 h 8.69667 8.69668 v 5.85048 5.8505 h -8.69668 -8.69667 z"
       id="path44-1-6-3-4" />
  </g>
  <path
     style="fill:#117b99;fill-opacity:1;stroke-width:2.03446"
     d="m 89.051112,375.18166 c -1.76326,-3.48089 -1.52754,-5.16782 1.16064,-8.30611 2.79189,-3.25931 6.74731,-4.04032 22.949258,-4.53115 l 19.57597,-0.59308 -9.82692,-12.82304 -9.82691,-12.82306 18.84222,-63.50445 c 10.36322,-34.92746 20.36717,-67.64115 22.23101,-72.69713 l 3.38883,-9.19266 26.58812,-10.15061 c 14.62346,-5.58283 27.6352,-10.15059 28.91498,-10.15059 2.07957,0 8.44877,21.0357 11.87179,39.20934 1.2033,6.38852 1.78448,6.79629 9.68657,6.79629 8.31515,0 8.42068,-0.0936 9.70791,-8.59838 0.78174,-5.16502 0.44405,-9.68979 -0.8457,-11.33168 -1.18089,-1.50329 -1.87536,-7.75002 -1.54323,-13.88161 l 0.60383,-11.14837 h 14.8448 14.84479 l 0.0739,19.86605 c 0.1,26.84772 -0.42257,25.43884 9.15787,24.6914 l 8.24224,-0.643 5.25511,-21.40497 c 2.89034,-11.77271 5.8259,-22.00795 6.52349,-22.74495 1.21013,-1.27856 54.26175,17.23035 57.33044,20.00169 0.81014,0.73166 11.74764,33.69835 24.30551,73.25937 l 22.83252,71.92907 -10.94521,11.68568 c -6.01985,6.42717 -10.94521,12.33339 -10.94521,13.12498 0,0.79158 9.92526,1.70532 22.0561,2.03052 18.46773,0.49509 22.4108,1.18666 24.23637,4.25082 1.58801,2.66542 1.5868,4.65364 -0.004,7.31907 -2.0487,3.4316 -12.67675,3.69282 -170.62941,4.19405 l -168.444808,0.53453 -2.21262,-4.36802 z M 338.12994,347.74052 c 1.72903,-1.82674 2.37517,-17.73531 2.37517,-58.47903 0,-53.19531 -0.18981,-56.07694 -3.82849,-58.13438 -2.44676,-1.38346 -31.021,-2.16474 -79.17221,-2.16474 -72.7047,0 -75.4824,0.1464 -79.30236,4.18234 -3.74561,3.95728 -3.95859,6.97054 -3.95859,55.99614 0,43.51105 0.4937,52.55857 3.08115,56.46143 l 3.08123,4.64764 h 77.67445 c 57.77441,0 78.28301,-0.64291 80.04965,-2.5094 z m -140.13483,-6.93151 c 0,-2.77131 7.46646,-3.09821 59.70976,-2.61396 45.63015,0.42295 59.90409,1.16983 60.53377,3.16743 0.6472,2.05315 -12.16283,2.61396 -59.70978,2.61396 -52.7487,0 -60.53375,-0.40739 -60.53375,-3.16743 z m 30.24193,-178.75503 c -56.09535,-29.83107 -45.27502,-117.574648 16.1647,-131.081855 15.24139,-3.350735 31.19544,-0.881237 44.78278,6.931855 46.46723,26.719915 45.24419,98.51434 -2.12065,124.48526 -7.11185,3.89954 -12.69643,5.01771 -27.71029,5.54829 -17.74739,0.62715 -19.49494,0.29672 -31.11654,-5.88355 z"
     id="path46" />
</svg>
