<?xml version="1.0" encoding="UTF-8" standalone="no"?>
<svg
   xmlns:dc="http://purl.org/dc/elements/1.1/"
   xmlns:cc="http://creativecommons.org/ns#"
   xmlns:rdf="http://www.w3.org/1999/02/22-rdf-syntax-ns#"
   xmlns:svg="http://www.w3.org/2000/svg"
   xmlns="http://www.w3.org/2000/svg"
   xmlns:sodipodi="http://sodipodi.sourceforge.net/DTD/sodipodi-0.dtd"
   xmlns:inkscape="http://www.inkscape.org/namespaces/inkscape"
   inkscape:export-ydpi="96"
   inkscape:export-xdpi="96"
   inkscape:export-filename="D:\c-s\SVN-WEBREFCSSI\trunk\webref\1-src\images\domain-image-icon.png"
   inkscape:version="1.0 (4035a4fb49, 2020-05-01)"
   sodipodi:docname="domain-image-icon.svg"
   id="svg4"
   viewBox="0 0 512.00002 512"
   height="512"
   width="512"
   version="1.1">
  <metadata
     id="metadata10">
    <rdf:RDF>
      <cc:Work
         rdf:about="">
        <dc:format>image/svg+xml</dc:format>
        <dc:type
           rdf:resource="http://purl.org/dc/dcmitype/StillImage" />
        <dc:title></dc:title>
      </cc:Work>
    </rdf:RDF>
  </metadata>
  <defs
     id="defs8">
    <pattern
       id="EMFhbasepattern"
       patternUnits="userSpaceOnUse"
       width="6"
       height="6"
       x="0"
       y="0" />
    <pattern
       id="EMFhbasepattern-1"
       patternUnits="userSpaceOnUse"
       width="6"
       height="6"
       x="0"
       y="0" />
  </defs>
  <sodipodi:namedview
     inkscape:current-layer="svg4"
     inkscape:window-maximized="1"
     inkscape:window-y="-8"
     inkscape:window-x="-8"
     inkscape:cy="250.75208"
     inkscape:cx="81.81136"
     inkscape:zoom="0.84765625"
     fit-margin-bottom="0"
     fit-margin-right="0"
     fit-margin-left="0"
     fit-margin-top="0"
     showgrid="false"
     id="namedview6"
     inkscape:window-height="1017"
     inkscape:window-width="1920"
     inkscape:pageshadow="2"
     inkscape:pageopacity="0"
     guidetolerance="10"
     gridtolerance="10"
     objecttolerance="10"
     borderopacity="1"
     bordercolor="#666666"
     pagecolor="#ffffff" />
  <path
     id="path25"
     d="m 455.07746,159.55889 -21.11524,-21.11628 2.95896,-2.96588 c 1.62766,-1.63121 2.95852,-3.08828 2.95852,-3.23785 0,-0.35175 -6.53835,-6.88789 -6.80045,-6.79826 -0.49713,0.17003 -12.29328,12.17332 -12.28856,12.50451 0.003,0.20551 0.23364,0.86294 0.514,1.46118 1.56666,3.34973 2.53495,6.77073 2.91266,10.28947 0.22066,2.0682 0.19902,2.70935 -0.1471,4.2642 -0.86229,3.87663 -2.72922,6.16794 -6.0449,7.41933 -1.77737,0.67075 -2.25156,0.74682 -4.65918,0.74682 -4.53656,0 -8.868,-1.3801 -15.30186,-4.87557 -3.62957,-1.9718 -10.64242,-7.23742 -13.85591,-10.40347 -0.37641,-0.37036 -0.787,-0.67317 -0.91334,-0.67317 -0.1298,0 -2.64701,2.38088 -5.60094,5.29084 -2.95377,2.90998 -6.04637,5.91271 -6.87219,6.67277 l -1.50133,1.38195 0.012,1.56731 c 0.0153,1.9943 -0.71216,3.51081 -2.1793,4.54181 -0.93238,0.65535 -1.21794,0.72734 -2.88714,0.72734 -1.72285,0 -1.93225,-0.0575 -2.99789,-0.82461 -1.95389,-1.40666 -2.71451,-3.63922 -1.995,-5.8579 0.77879,-2.40191 2.5886,-3.58973 5.46916,-3.58973 h 1.39663 l 4.30063,-4.20463 c 2.36535,-2.31256 5.43472,-5.29812 6.82057,-6.63463 2.87761,-2.77512 2.83435,-2.52059 0.81729,-4.78892 -1.51907,-1.70831 -3.55949,-4.23223 -4.54556,-5.62276 -0.39805,-0.56228 -0.95142,-1.31316 -1.22789,-1.66859 -0.90858,-1.16788 -3.38728,-5.43567 -4.54231,-7.82115 -5.55617,-11.47664 -4.33018,-20.4278 3.15754,-23.05378 1.75357,-0.61494 5.61683,-0.73167 8.07178,-0.24402 2.32035,0.46109 5.91778,1.68958 8.14044,2.77997 0.83287,0.40843 1.70381,0.74296 1.93528,0.74296 0.45257,0 12.13973,-11.547185 12.13973,-11.994204 0,-0.346127 -4.58048,-4.924808 -4.92691,-4.924808 -0.14278,0 -1.59738,1.331422 -3.2285,2.95874 l -2.96588,2.95874 -21.11819,-21.117134 -21.11814,-21.117138 11.39127,-11.419627 11.39131,-11.419632 21.14764,21.116013 21.14765,21.116013 -2.95983,2.96683 c -1.62766,1.631774 -2.95982,3.090571 -2.95982,3.241872 0,0.439711 4.62054,4.945324 4.98986,4.865754 0.18172,-0.03968 4.41507,-4.147168 9.4022,-9.127789 l 9.06759,-9.055695 15.70315,15.701755 c 8.63674,8.636046 15.70315,15.812633 15.70315,15.948051 0,0.135422 -4.07868,4.320019 -9.06374,9.299109 -4.98376,4.9791 -9.06243,9.13794 -9.06243,9.24188 0,0.29421 6.55556,6.71356 6.85613,6.71356 0.1471,0 1.60041,-1.33025 3.23023,-2.95614 l 2.96329,-2.95615 21.1132,21.14407 21.11325,21.14407 -11.41519,11.38941 -11.41515,11.38942 z m -38.79581,-2.56566 c 1.09159,-0.3245 2.25891,-1.40874 2.72921,-2.53526 0.86705,-2.07477 0.61611,-5.69075 -0.66024,-9.51705 -0.69269,-2.07595 -2.88843,-6.72234 -3.8723,-8.19331 -0.22065,-0.33229 -1.0055,-1.52876 -1.74015,-2.65869 -6.33115,-9.73465 -17.13811,-19.62348 -26.63675,-24.37366 -4.38881,-2.19479 -6.94011,-2.98483 -10.09524,-3.12609 -2.06984,-0.0926 -2.82137,-0.033 -3.67111,0.29161 -3.5305,1.34821 -4.20069,5.51236 -1.97639,12.28 1.22746,3.73524 3.84591,8.35423 8.12037,14.32382 0.96915,1.35379 4.64862,5.5591 4.86373,5.5591 0.0952,0 1.83318,-1.57708 3.85673,-3.50467 2.02354,-1.92754 3.75807,-3.53577 3.85456,-3.5738 0.0952,-0.038 0.89517,0.66893 1.77433,1.57102 l 1.59868,1.64021 -3.7689,3.65818 c -2.07287,2.012 -3.72865,3.76163 -3.67933,3.88809 0.1298,0.32753 4.16824,3.92639 5.89061,5.24703 7.28771,5.58791 14.00592,8.79895 19.69854,9.41511 1.07429,0.11638 2.51721,-0.0358 3.71395,-0.39156 z"
     style="fill:#117b99;fill-opacity:1;stroke-width:0.2417" />
  <g
     transform="matrix(0.87336337,0,0,0.87336337,35.39131,51.295085)"
     id="g890">
    <path
       fill="#444444"
       d="m 237.55414,89.536288 c -94.83898,0 -172.434511,77.595532 -172.434511,172.434512 0,94.83897 77.595531,172.43453 172.434511,172.43453 94.83896,0 172.43447,-77.59556 172.43447,-172.43453 0,-94.83898 -77.59551,-172.434512 -172.43447,-172.434512 z M 349.63655,203.77415 c 8.62173,0 15.08804,6.46629 23.70973,6.46629 -6.46627,8.62173 -34.48688,8.62173 -43.10859,-2.15542 6.46629,-2.15542 10.77714,-4.31088 19.39886,-4.31087 z M 86.673943,261.9708 c 0,-8.62173 0,-17.24346 2.155422,-28.02061 2.155421,0 4.310842,2.15542 6.466294,2.15542 0,0 2.155422,2.15542 2.155422,4.31084 0,6.4663 6.466299,10.77716 10.777159,10.77716 17.24344,2.15542 23.70974,17.24345 38.79776,21.55431 4.31084,2.15542 2.15542,6.4663 0,10.77716 -12.93259,17.24345 -2.15542,30.17604 8.62172,40.95319 10.77716,8.62173 10.77716,17.24345 12.93259,30.17604 0,15.08802 2.15542,32.33148 8.62173,47.41952 C 123.31628,376.20866 86.673943,324.4783 86.673943,261.9708 Z M 237.55414,412.85102 c -15.08802,0 -32.33147,-2.1555 -45.26406,-6.4663 -2.15542,-4.31102 -2.15542,-8.62173 0,-12.93257 8.62172,-17.24349 17.24345,-32.33151 28.0206,-47.41953 4.31085,-4.31085 8.62173,-8.62173 8.62173,-15.08802 0,-4.31089 2.15542,-10.77716 4.31085,-15.08802 6.46631,-10.77716 4.31088,-17.24345 -4.31085,-19.39888 -17.24345,-4.31087 -25.86518,-19.39888 -38.79776,-25.86518 -12.93259,-6.46629 -25.86518,-10.77716 -36.64233,-4.31086 -4.31085,2.15542 -10.77716,4.31084 -10.77716,-2.15543 0,-8.62172 -10.77716,-15.08801 -8.62173,-23.70974 -2.15542,0 -4.31084,0 -6.46629,2.15542 -2.15542,2.15542 -4.31085,4.31089 -8.62173,2.15542 -4.31086,-4.31085 -2.15543,-8.62171 -2.15543,-12.93257 2.15543,-4.31087 4.31086,-6.4663 8.62173,-8.62173 8.62172,-2.15543 17.24345,-2.15543 21.55431,8.62173 6.4663,-19.39889 19.39888,-30.17604 32.33147,-38.79777 0,0 17.24345,-15.08802 19.39888,-15.08802 2.15542,0 4.31085,4.31085 8.62173,6.4663 4.31084,0 6.46629,0 6.46629,-4.31084 2.15542,-10.77716 -4.31084,-23.70975 -12.93259,-25.86518 0,-2.15542 2.15543,-2.15542 2.15543,-2.15542 6.46629,-2.15542 15.08801,-6.46629 12.93258,-12.93258 0,-8.62173 -8.62172,-12.93259 -17.24345,-12.93259 -4.31084,0 -8.62172,0 -12.93258,2.15542 -8.62172,4.31084 -19.39888,8.6217 -32.33146,8.6217 23.70974,-17.24345 53.88578,-25.86518 84.06182,-25.86518 6.46629,0 10.77715,0 17.24345,0 -12.93259,2.15542 -25.86518,6.4663 -34.48691,10.77716 12.93259,2.15542 15.08802,8.62173 10.77716,19.39888 -2.15542,4.31084 0,8.62173 4.31085,10.77716 4.31088,2.15542 8.62172,2.15542 10.77715,-2.15543 4.31085,-6.46629 12.93259,-8.62172 19.39888,-10.77715 8.62173,-2.15542 15.08802,-6.4663 21.55432,-15.08802 0,-2.15542 2.15542,-2.15542 4.31084,-4.31084 12.93259,4.31084 25.86518,12.93259 38.79777,21.55431 -2.15551,0 -2.15551,2.15542 -4.31102,2.15542 -4.31084,4.31089 -10.77716,6.4663 -4.31084,15.08802 2.15542,4.31084 0,6.4663 -2.15542,8.62173 -4.31084,2.15542 -6.4663,0 -8.62173,-2.15542 -2.15542,-2.15543 -2.15542,-6.46631 -8.62173,-6.46631 -2.15543,4.31084 -8.62173,6.4663 -8.62173,12.93259 10.77716,0 8.62173,8.62173 10.77716,15.08802 -12.93259,2.15542 -17.24345,8.62173 -10.77716,19.39888 2.15542,4.31089 -2.15542,6.46629 -4.31084,8.62173 -8.62156,12.93256 -17.24329,21.55429 -17.24329,36.64231 0,15.08802 10.77716,30.17604 28.02061,28.02061 19.39889,-2.15543 19.39889,-2.15543 25.86519,15.08801 0,2.15543 2.15551,4.31085 2.15551,6.4663 2.15551,4.31084 4.31101,8.62172 2.15551,12.93259 -6.46631,17.24345 2.1555,30.17604 8.62171,43.10862 2.15551,4.31085 4.31101,6.4663 6.46626,8.62173 -28.02075,30.17607 -64.66308,47.41952 -107.7717,47.41952 z"
       id="path2"
       style="fill:#117b99;fill-opacity:1;stroke-width:21.5543" />
    <path
       d="M -116.99479,512.59803 A 233.10764,229.17189 0 0 1 -380.52895,438.59869 233.10764,229.17189 0 0 1 -390.32371,169.32548 233.10764,229.17189 0 0 1 -132.83926,77.008747 233.10764,229.17189 0 0 1 35.990266,289.2627"
       style="fill:none;fill-opacity:1;stroke:#117b99;stroke-width:14.1601;stroke-linecap:butt;stroke-linejoin:round;stroke-miterlimit:3.3;stroke-dasharray:42.4803, 14.1601;stroke-dashoffset:0;stroke-opacity:1"
       id="path55"
       sodipodi:type="arc"
       sodipodi:cx="-196.97266"
       sodipodi:cy="297.33664"
       sodipodi:rx="233.10764"
       sodipodi:ry="229.17189"
       sodipodi:start="1.2205873"
       sodipodi:end="6.2479471"
       sodipodi:open="true"
       sodipodi:arc-type="arc"
       transform="matrix(0.25889878,-0.96590446,0.97043074,0.24137974,0,0)" />
  </g>
</svg>
