<?xml version="1.0" encoding="UTF-8" standalone="no"?>
<svg
   xmlns:dc="http://purl.org/dc/elements/1.1/"
   xmlns:cc="http://creativecommons.org/ns#"
   xmlns:rdf="http://www.w3.org/1999/02/22-rdf-syntax-ns#"
   xmlns:svg="http://www.w3.org/2000/svg"
   xmlns="http://www.w3.org/2000/svg"
   xmlns:sodipodi="http://sodipodi.sourceforge.net/DTD/sodipodi-0.dtd"
   xmlns:inkscape="http://www.inkscape.org/namespaces/inkscape"
   version="1.1"
   width="512"
   height="512"
   viewBox="0 0 512.00002 512"
   id="svg4"
   sodipodi:docname="domain-image-icon.svg"
   inkscape:version="1.0 (4035a4fb49, 2020-05-01)"
   inkscape:export-filename="D:\c-s\SVN-WEBREFCSSI\trunk\webref\1-src\images\domain-image-icon.png"
   inkscape:export-xdpi="96"
   inkscape:export-ydpi="96">
  <metadata
     id="metadata10">
    <rdf:RDF>
      <cc:Work
         rdf:about="">
        <dc:format>image/svg+xml</dc:format>
        <dc:type
           rdf:resource="http://purl.org/dc/dcmitype/StillImage" />
        <dc:title />
      </cc:Work>
    </rdf:RDF>
  </metadata>
  <defs
     id="defs8">
    <pattern
       y="0"
       x="0"
       height="6"
       width="6"
       patternUnits="userSpaceOnUse"
       id="EMFhbasepattern" />
    <pattern
       y="0"
       x="0"
       height="6"
       width="6"
       patternUnits="userSpaceOnUse"
       id="EMFhbasepattern-1" />
    <pattern
       id="EMFhbasepattern-2"
       patternUnits="userSpaceOnUse"
       width="6"
       height="6"
       x="0"
       y="0" />
  </defs>
  <sodipodi:namedview
     inkscape:document-rotation="0"
     pagecolor="#ffffff"
     bordercolor="#666666"
     borderopacity="1"
     objecttolerance="10"
     gridtolerance="10"
     guidetolerance="10"
     inkscape:pageopacity="0"
     inkscape:pageshadow="2"
     inkscape:window-width="1920"
     inkscape:window-height="1017"
     id="namedview6"
     showgrid="false"
     fit-margin-top="0"
     fit-margin-left="0"
     fit-margin-right="0"
     fit-margin-bottom="0"
     inkscape:zoom="0.84765625"
     inkscape:cx="81.81136"
     inkscape:cy="250.75208"
     inkscape:window-x="1912"
     inkscape:window-y="-8"
     inkscape:window-maximized="1"
     inkscape:current-layer="svg4" />
  <path
     id="path39"
     d="m 87.51955,455.29771 c 2.55225,-3.62709 4.727611,-6.70961 4.834142,-6.85003 0.281884,-0.37159 17.906848,5.88307 18.650968,6.61878 0.34561,0.34168 -1.90066,2.0173 -4.9917,3.72359 l -5.62008,3.10236 h -8.756895 -8.756897 z m 280.99225,-0.18842 v -6.78313 h 7.15997 7.15997 v 6.78313 6.78312 h -7.15997 -7.15997 z M 63.746378,448.26046 c -9.065486,-1.58296 -16.611344,-3.00673 -16.768571,-3.16397 -0.157218,-0.15722 0.25945,-3.22558 0.925932,-6.81857 0.892692,-4.81247 1.513579,-6.53272 2.357831,-6.53272 1.438629,0 32.88679,5.39551 33.24705,5.70414 0.273798,0.23456 -1.221283,10.23856 -1.878954,12.5726 -0.2044,0.72541 -0.603151,1.27342 -0.886114,1.21778 -0.282957,-0.0556 -7.931686,-1.3963 -16.997174,-2.97926 z m 60.792812,-3.72941 c -3.53767,-0.63585 -23.91907,-9.01109 -25.192246,-10.35213 -0.404785,-0.42637 4.332976,-30.36823 4.872526,-30.79364 0.0701,-0.0552 5.72346,-0.49608 12.56311,-0.97969 11.57654,-0.81851 12.82626,-0.77725 18.08833,0.59711 5.70592,1.49033 14.36814,5.11137 16.73293,6.99484 1.19912,0.95506 1.10115,2.07122 -1.50738,17.17372 l -2.78983,16.15227 -2.26103,0.61438 c -3.65475,0.99308 -16.25377,1.35751 -20.50641,0.59314 z m 18.58506,-18.47985 c 0.5276,-3.54623 0.79845,-6.60848 0.60193,-6.80501 -0.54455,-0.54454 -12.70705,-2.74245 -13.08491,-2.3646 -0.42423,0.42424 -2.70976,13.4623 -2.40541,13.72198 0.39583,0.33774 9.16571,1.69737 11.60103,1.79856 l 2.32811,0.0967 z m 204.2845,7.95503 v -6.78313 h 7.15998 7.15996 v 6.78313 6.78312 h -7.15996 -7.15998 z m 42.95979,0 v -6.78313 h 6.78312 6.78313 v 6.78313 6.78312 h -6.78313 -6.78312 z m -227.61146,3.31116 c 0,-0.79435 2.37571,-14.19306 2.70304,-15.24482 0.42634,-1.36986 10.10952,7.17274 10.10952,8.9187 0,1.75935 -0.95372,2.41264 -6.97947,4.78085 -5.46765,2.14887 -5.83309,2.24567 -5.83309,1.54527 z M 80.98276,422.51112 c -4.559763,-0.82621 -8.369885,-1.5683 -8.466939,-1.64909 -0.09705,-0.0808 0.372557,-3.20235 1.043567,-6.93677 l 1.220023,-6.7899 8.000601,1.34556 c 13.620693,2.29074 13.009583,2.12016 12.61637,3.52139 -0.19721,0.70274 -0.753549,3.7366 -1.236326,6.7419 -1.029044,6.40595 -0.0917,6.138 -13.177296,3.76691 z m 287.52904,-9.60794 v -6.78312 h 7.15997 7.15997 v 6.78312 6.78313 h -7.15997 -7.15997 z m -318.806773,4.21889 c -5.535011,-0.98616 -5.247738,-0.27262 -3.764118,-9.34955 0.881648,-5.39399 0.941368,-5.49923 2.897415,-5.10585 1.098473,0.22092 4.22476,0.7732 6.94731,1.22732 l 4.950079,0.82564 -1.104049,6.72966 c -1.260926,7.68591 -0.635099,7.32827 -9.926637,5.67278 z M 73.18078,392.51126 c -8.85085,-1.58094 -16.256584,-3.03856 -16.457166,-3.23916 -0.47561,-0.47559 1.277116,-11.33453 2.024736,-12.54422 0.443252,-0.7172 4.477735,-0.26461 17.641965,1.97905 l 17.067289,2.90888 -0.377892,1.88902 c -0.207846,1.03896 -0.760195,4.17833 -1.227454,6.97637 -0.492923,2.95177 -1.212547,5.04897 -1.714281,4.99593 -0.475603,-0.0502 -8.106339,-1.38491 -16.957197,-2.96587 z m 163.54237,-1.52438 c -14.26604,-1.37627 -29.21895,-5.50323 -42.17289,-11.63958 l -7.17182,-3.39731 3.86772,-1.92736 c 5.09734,-2.54012 10.90535,-8.97458 13.0385,-14.44484 2.26624,-5.81159 2.34012,-14.7688 0.167,-20.24883 l -1.5302,-3.85878 5.35452,-0.49509 c 13.94409,-1.28931 24.95476,-12.10102 25.91297,-25.44473 l 0.36031,-5.01755 6.12158,2.66224 c 24.52376,10.66524 65.69486,25.97677 91.09608,33.87862 7.7707,2.41731 14.12987,4.60045 14.1315,4.85139 0.001,0.25094 -2.06202,2.70982 -4.58587,5.46419 l -4.58885,5.00791 h -32.36031 c -30.05457,0 -32.65568,0.1038 -36.50542,1.45688 -12.22056,4.29519 -20.0089,16.15106 -18.94516,28.8394 l 0.42981,5.1267 -3.15929,-0.10274 c -1.73762,-0.0565 -5.9947,-0.37624 -9.46018,-0.71056 z m 26.74845,-2.38989 c -1.52066,-5.67431 0.59103,-11.81407 5.29897,-15.40679 l 2.77321,-2.11627 23.42414,-0.20472 23.42415,-0.20473 -4.52208,2.76934 c -11.00307,6.7383 -26.16479,12.62015 -39.57619,15.35322 -9.41362,1.91837 -10.26116,1.90349 -10.8222,-0.19005 z m -153.17533,-0.37253 -7.61682,-0.24306 -1.87905,-8.45374 c -1.033483,-4.64955 -1.82387,-8.53175 -1.756411,-8.62712 0.06745,-0.0954 2.900721,0.92212 6.296151,2.26104 5.4969,2.16761 6.89419,3.1572 12.74908,9.02914 l 6.57557,6.5947 -3.37584,-0.15896 c -1.85672,-0.0874 -6.80343,-0.26832 -10.99268,-0.402 z m 51.57846,-31.29509 c -15.92241,-15.11802 -27.56907,-33.52017 -34.08856,-53.86116 -1.49221,-4.65573 -2.71311,-8.81039 -2.71311,-9.23259 0,-0.5118 13.91928,-0.76761 41.76677,-0.76761 39.24131,0 41.96715,0.0858 45.08077,1.42055 3.60532,1.54542 7.0908,5.14813 7.83,8.09336 0.97321,3.87759 -0.11544,9.85473 -2.32171,12.74733 -3.89158,5.10213 -6.07748,5.58963 -25.14784,5.60839 l -16.82736,0.0165 -2.20306,2.20307 c -1.50028,1.50028 -2.20307,2.95864 -2.20307,4.57164 0,4.6249 2.68069,6.95782 8.90964,7.75375 10.18583,1.30154 15.42509,12.91388 9.71768,21.53836 -2.92298,4.41692 -7.12156,6.14222 -14.90846,6.12624 l -6.35675,-0.013 z m 247.71266,2.02155 c -1.24357,-0.17164 -5.48303,-0.67586 -9.42101,-1.1205 -11.05516,-1.24826 -36.20846,-6.67281 -37.86053,-8.16499 -0.44551,-0.40238 4.8556,-9.27153 6.92016,-11.57796 0.28466,-0.31801 5.0734,0.4581 10.64163,1.7247 12.07783,2.74731 25.81091,4.97517 34.61867,5.61604 6.30521,0.45877 13.96405,-0.45258 15.33639,-1.82492 1.21757,-1.21758 -2.88431,-6.99041 -9.42883,-13.2698 -6.46234,-6.20053 -15.90738,-13.59127 -28.59382,-22.37467 l -7.23581,-5.00967 1.3819,-5.50582 c 0.76005,-3.0282 1.3877,-6.09936 1.39479,-6.82478 0.007,-0.72541 0.39072,-1.31894 0.85252,-1.31894 1.2344,0 14.87462,9.05486 24.43559,16.22121 25.15384,18.85383 34.76486,32.6966 30.23255,43.54393 -1.45567,3.48391 -5.86061,7.0509 -10.46475,8.47405 -3.85323,1.19104 -18.04523,2.06966 -22.80945,1.41212 z m -67.4544,-29.41141 c -26.00953,-8.12002 -51.75609,-17.29585 -75.36803,-26.86043 -17.09515,-6.92479 -42.61621,-18.05868 -46.08402,-20.10474 -1.40766,-0.83053 -4.01998,-2.02539 -5.80515,-2.65524 -15.36647,-5.4216 -89.00891,-44.45042 -89.03701,-47.18759 -0.007,-0.64493 0.69211,-3.2577 1.55274,-5.80614 l 1.56477,-4.63355 34.89446,-0.2233 34.89444,-0.2233 5.90259,-3.01471 c 6.92294,-3.53587 11.28902,-8.31724 13.85337,-15.17108 2.16229,-5.7792 2.22499,-13.4301 0.15828,-19.30981 l -1.52329,-4.33366 8.42187,-0.006 c 11.06999,-0.007 17.20628,-1.07397 22.54184,-3.9178 5.47783,-2.91965 9.12178,-6.91407 12.14964,-13.31816 2.087,-4.4141 2.355,-5.73344 2.31543,-11.39821 -0.034,-4.87665 -0.43495,-7.27756 -1.67894,-10.05535 l -1.63419,-3.64908 3.945,0.50671 c 31.4944,4.04532 60.3888,19.10253 80.28527,41.83758 l 5.60643,6.40628 -32.70085,0.37684 -32.70084,0.37685 -4.97333,2.44941 c -5.89641,2.90403 -10.5286,7.63618 -13.33497,13.62271 -1.75219,3.73773 -2.0051,5.22789 -2.0051,11.81405 0,6.80208 0.21448,7.97363 2.20016,12.01783 4.46178,9.08725 13.4089,15.1502 23.62061,16.00631 l 5.23611,0.43898 -1.38877,3.65496 c -5.32283,14.00854 1.01457,29.51825 14.63144,35.80798 l 4.68967,2.16656 30.71248,0.22019 c 23.38181,0.16764 30.70981,0.43748 30.70133,1.13053 -0.0235,1.92118 -2.38611,11.01022 -4.64463,17.86812 -4.34617,13.19692 -12.34124,28.66767 -14.78475,28.60895 -0.70712,-0.017 -6.20346,-1.5662 -12.21406,-3.44266 z M 122.30683,277.80599 c -0.85065,-1.34881 -0.69205,-26.31383 0.17695,-27.85111 0.64597,-1.14275 1.50361,-0.82682 7.80373,2.87487 6.34696,3.72919 13.61766,7.67138 40.00637,21.6916 l 7.91365,4.2045 -27.65328,0.0116 c -21.31316,0.008 -27.78949,-0.20487 -28.24742,-0.93098 z m 190.24236,-8.15433 c -6.27049,-3.31025 -8.99643,-11.89086 -5.84543,-18.39999 2.14095,-4.4226 5.95969,-6.99753 11.75521,-7.9264 3.29611,-0.52826 4.89635,-1.22035 6.15096,-2.66017 2.28105,-2.61779 2.23047,-6.43162 -0.12157,-9.16843 l -1.81734,-2.11465 -17.96677,-0.37684 c -20.01111,-0.41971 -20.97986,-0.64286 -24.85658,-5.7255 -2.43008,-3.18598 -3.32289,-10.13928 -1.78014,-13.86379 1.3033,-3.14646 6.21565,-7.37193 9.19026,-7.90522 1.37193,-0.24597 18.0956,-0.34993 37.16371,-0.23102 l 34.6693,0.2162 3.52366,7.15997 c 1.93802,3.93798 4.8851,11.22983 6.54909,16.20413 4.25761,12.72763 7.75462,35.9593 6.51622,43.28924 l -0.51734,3.06209 -29.89254,-0.0333 c -28.30691,-0.0316 -30.04257,-0.11252 -32.7207,-1.52631 z m 133.9731,-5.96979 c -0.25368,-0.41047 -0.22347,-3.67663 0.0671,-7.25814 l 0.52837,-6.51184 6.70436,0.38226 c 3.68742,0.21025 6.77621,0.5088 6.86398,0.66343 0.0877,0.15464 0.048,3.24878 -0.0883,6.87587 l -0.24784,6.59471 h -6.68327 c -3.6758,0 -6.89081,-0.33583 -7.14449,-0.74629 z M 99.393847,233.80245 C 87.088813,225.58181 71.815789,213.58276 67.43968,208.69808 c -0.816309,-0.91118 -3.868709,-2.76043 -6.783128,-4.10946 -14.548073,-6.734 -20.680945,-23.3088 -13.934844,-37.66053 6.351395,-13.51201 23.243794,-19.5756 37.261171,-13.37506 4.811547,2.12838 11.065359,8.30621 13.223301,13.06263 0.992954,2.18862 1.889531,4.10658 1.992387,4.26216 0.10287,0.15557 3.507823,0.89042 7.566573,1.63299 8.17378,1.49543 28.3142,6.00001 28.77817,6.43648 0.32993,0.31038 -7.45169,12.37387 -7.98183,12.37387 -0.18494,0 -4.12728,-0.87661 -8.76073,-1.94806 -13.07337,-3.02307 -19.351568,-4.00583 -19.360184,-3.03057 -0.0037,0.45837 -0.827624,2.59517 -1.830173,4.74845 -2.16099,4.64139 -6.857325,9.95035 -10.57156,11.9506 -1.465478,0.78922 -2.664514,1.6365 -2.664514,1.88286 0,0.60861 14.792095,11.69486 22.233571,16.66342 l 6.02944,4.02577 -1.50312,6.97153 c -0.82673,3.83435 -1.86853,6.97155 -2.31512,6.97155 -0.44661,0 -4.68796,-2.58941 -9.425243,-5.75426 z M 441.9834,222.15903 c -0.72365,-3.72563 -1.18651,-6.89296 -1.02859,-7.03851 0.36609,-0.3374 11.76796,-3.44999 12.63779,-3.44999 0.51272,0 1.86712,5.64483 3.37833,14.08004 0.0864,0.48259 -2.59484,1.13348 -11.30883,2.74526 l -2.36298,0.43707 z M 137.16666,203.56847 c 17.77821,-31.58034 46.71068,-53.75954 81.36276,-62.37152 9.04146,-2.24704 18.4696,-3.64396 20.74296,-3.07339 4.60472,1.15572 9.37115,7.89633 9.37115,13.25254 0,5.844 -4.67624,11.95638 -10.3534,13.53309 -1.64719,0.45746 -12.37298,0.78017 -26.01283,0.78264 l -23.20993,0.005 -1.84994,1.84994 c -2.01679,2.0168 -2.49507,6.0879 -1.0356,8.81494 0.93811,1.75286 5.02804,3.65506 7.85879,3.65506 2.76915,0 7.52145,2.61624 9.30686,5.12362 5.31655,7.4664 2.69476,17.61757 -5.51309,21.34588 -2.78974,1.26721 -5.57143,1.38496 -33.07664,1.40013 l -30.03074,0.0165 2.43965,-4.33367 z m 294.35993,-16.76888 c -0.76278,-3.77354 -1.26295,-6.9845 -1.11152,-7.13546 0.25848,-0.25763 12.20055,-3.41657 12.91607,-3.41657 0.18186,0 0.9144,2.79804 1.62785,6.21787 0.71346,3.41982 1.44615,6.75611 1.62821,7.41399 0.26475,0.95678 -0.76473,1.38512 -5.14502,2.14066 -3.01179,0.51948 -6.16286,1.10112 -7.00235,1.29252 -1.37528,0.31354 -1.66369,-0.33126 -2.91324,-6.51301 z m -30.70948,-21.6061 c -7.78875,-7.73397 -12.04984,-12.52921 -12.35067,-13.89889 -0.5578,-2.53961 0.46586,-4.6707 4.03873,-8.40801 l 2.71209,-2.8369 -2.40245,-2.40245 -2.40246,-2.40245 -5.9648,5.80461 c -5.23239,5.09189 -6.30328,5.80463 -8.72152,5.80463 -2.24303,0 -3.45888,-0.65679 -6.52488,-3.52468 l -3.76816,-3.52467 -4.30162,4.19955 c -5.03966,4.9201 -6.65497,5.56486 -10.21506,4.07735 -3.02884,-1.26553 -4.26123,-3.14821 -4.26123,-6.50972 0,-1.83931 0.9235,-3.33473 4.14524,-6.71239 2.27989,-2.39023 4.14524,-4.6703 4.14524,-5.06686 0,-0.39655 -1.34157,-2.031 -2.98126,-3.63212 -5.44634,-5.3182 -4.86521,-8.17708 3.2947,-16.20811 l 4.94838,-4.87024 -2.38404,-2.45971 -2.38404,-2.45971 -3.60614,3.37312 c -2.94746,2.75701 -4.12352,3.37313 -6.43864,3.37313 -2.65213,0 -3.59007,-0.75757 -14.72905,-11.896555 -15.93732,-15.937307 -15.91231,-14.08783 -0.40293,-29.807964 11.32848,-11.482432 12.86664,-12.576287 16.83628,-11.973033 0.86585,0.131581 6.88586,5.588457 13.37782,12.126391 10.99259,11.070425 11.80357,12.079904 11.80357,14.69256 0,2.283037 -0.62809,3.476874 -3.37312,6.411542 l -3.37313,3.606144 2.45893,2.383269 2.45891,2.383278 5.00019,-5.079604 c 3.53961,-3.595794 7.03253,-8.492038 11.95761,-16.761645 3.82657,-6.425125 7.46093,-12.268935 8.07636,-12.986245 1.63747,-1.908543 5.59559,-2.435119 8.16885,-1.086762 1.1903,0.623703 9.20166,8.233352 17.80305,16.910333 14.71521,14.844562 15.63886,15.94179 15.63886,18.577938 0,1.54088 -0.34399,3.444354 -0.76443,4.229942 -0.42043,0.785589 -6.45224,4.835181 -13.40405,8.999111 -9.28882,5.56374 -13.92656,8.86926 -17.49416,12.46885 l -4.85456,4.89808 2.4207,2.42071 2.42071,2.42071 2.8369,-2.75634 c 3.26829,-3.17544 6.34223,-4.54276 8.8166,-3.92172 0.95142,0.23878 7.03269,5.77455 13.51395,12.30172 12.55825,12.64717 13.07833,13.52182 10.71312,18.01647 -1.25929,2.39308 -20.40715,21.4178 -22.80881,22.66214 -4.09074,2.11949 -5.2028,1.43027 -17.67558,-10.9548 z m 19.69864,-10.42583 4.85538,-4.89892 -4.8568,-4.90035 -4.85679,-4.90034 -5.10766,5.06852 -5.10767,5.06853 4.6887,4.73075 c 2.57877,2.6019 4.87787,4.73074 5.10908,4.73074 0.23122,0 2.60531,-2.20451 5.27576,-4.89893 z M 350.63549,85.218802 c 2.37055,-2.395535 4.31007,-4.675714 4.31007,-5.067065 0,-0.391349 -2.11056,-2.84104 -4.69014,-5.443754 l -4.69014,-4.73221 -5.10767,5.068527 -5.10768,5.068526 4.6887,4.730749 c 2.57879,2.601912 5.04827,4.730749 5.48775,4.730749 0.43947,0 2.73858,-1.959985 5.10911,-4.355522 z M 165.77662,77.285946 c -1.58046,-3.397237 -2.62564,-6.440614 -2.32261,-6.76306 0.30303,-0.322446 3.45987,-1.728253 7.01519,-3.124014 l 6.46423,-2.53775 2.34591,6.439693 c 1.29024,3.541832 2.24861,6.53699 2.1297,6.655906 -0.11893,0.118916 -3.03832,1.406419 -6.48754,2.861114 l -6.2713,2.644907 z m 134.90395,-3.734473 c -3.10892,-0.863333 -5.74317,-1.630506 -5.85387,-1.704831 -0.11066,-0.07432 0.50627,-3.20812 1.37104,-6.963993 l 1.5723,-6.828861 6.91944,1.890454 c 3.80571,1.039749 7.06006,2.026339 7.23189,2.192418 0.3293,0.318268 -1.57706,7.621616 -2.89267,11.081925 -0.90441,2.378794 -0.97108,2.381452 -8.34813,0.332888 z M 209.0809,68.881548 c -0.89344,-3.874861 -2.48826,-12.087014 -2.36763,-12.191597 0.40164,-0.348192 14.37809,-2.488932 14.62669,-2.240335 0.38925,0.389243 1.67697,9.337692 1.69639,11.788304 0.0144,1.823837 -0.29838,1.964223 -6.79251,3.048159 -6.70058,1.118392 -6.81325,1.11203 -7.16294,-0.404531 z m 43.87405,-2.447826 c -0.84868,-0.219437 -1.20899,-0.786061 -0.94209,-1.481574 0.2377,-0.619433 0.43218,-3.642175 0.43218,-6.717203 v -5.590961 l 4.7105,0.0083 c 2.59077,0.0045 5.98715,0.219297 7.54751,0.477191 l 2.83702,0.468896 -0.43405,4.986991 c -0.78023,8.964866 -0.2991,8.390922 -6.95012,8.291124 -3.20466,-0.04809 -6.44509,-0.247327 -7.20095,-0.44276 z"
     style="fill:#117b99;stroke-width:0.75368;fill-opacity:1" />
</svg>
